<svg width="39" height="38" viewBox="0 0 39 38" fill="none" xmlns="http://www.w3.org/2000/svg">
<path d="M8.125 12.6667H30.875V9.50002H8.125V12.6667ZM8.125 34.8334C7.23125 34.8334 6.46615 34.5233 5.82969 33.9031C5.19323 33.283 4.875 32.5375 4.875 31.6667V9.50002C4.875 8.62919 5.19323 7.8837 5.82969 7.26356C6.46615 6.64342 7.23125 6.33335 8.125 6.33335H9.75V3.16669H13V6.33335H26V3.16669H29.25V6.33335H30.875C31.7687 6.33335 32.5339 6.64342 33.1703 7.26356C33.8068 7.8837 34.125 8.62919 34.125 9.50002V18.4854C33.6104 18.2479 33.0823 18.05 32.5406 17.8917C31.999 17.7334 31.4437 17.6146 30.875 17.5354V15.8334H8.125V31.6667H18.3625C18.5521 32.2472 18.7755 32.8014 19.0328 33.3292C19.2901 33.857 19.5948 34.3584 19.9469 34.8334H8.125ZM29.25 36.4167C27.0021 36.4167 25.0859 35.6448 23.5016 34.1011C21.9172 32.5573 21.125 30.6903 21.125 28.5C21.125 26.3097 21.9172 24.4427 23.5016 22.899C25.0859 21.3552 27.0021 20.5834 29.25 20.5834C31.4979 20.5834 33.4141 21.3552 34.9984 22.899C36.5828 24.4427 37.375 26.3097 37.375 28.5C37.375 30.6903 36.5828 32.5573 34.9984 34.1011C33.4141 35.6448 31.4979 36.4167 29.25 36.4167ZM31.9719 32.2604L33.1094 31.1521L30.0625 28.1834V23.75H28.4375V28.8167L31.9719 32.2604Z" fill="black" fill-opacity="0.74"/>
</svg>
