<?xml version="1.0" encoding="UTF-8"?>
<svg version="1.1" xmlns="http://www.w3.org/2000/svg" width="512" height="512">
<path d="M0 0 C0.72960937 0.05542969 1.45921875 0.11085937 2.2109375 0.16796875 C7.69773918 1.63289153 11.76494778 5.69738286 15.8125 9.5 C19.45081314 12.86335291 23.13392009 16.08899216 27 19.1875 C31.7956049 23.05404184 36.29378667 27.16101983 40.78637695 31.3684082 C44.99911123 35.29142724 49.38904453 38.93153719 53.87890625 42.53515625 C56.88819052 45.03076469 59.76438654 47.65015143 62.625 50.3125 C66.35827255 53.78669243 70.14871111 57.1131871 74.125 60.3125 C78.64358176 63.9481405 82.90483329 67.78086402 87.14672852 71.72875977 C90.3579905 74.69965628 93.65127815 77.51211077 97.0625 80.25 C101.84041338 84.09295479 106.31494984 88.18081329 110.78662109 92.36865234 C114.99929105 96.29156854 119.38913555 99.93161024 123.87890625 103.53515625 C126.88819052 106.03076469 129.76438654 108.65015143 132.625 111.3125 C136.35827255 114.78669243 140.14871111 118.1131871 144.125 121.3125 C148.64358176 124.9481405 152.90483329 128.78086402 157.14672852 132.72875977 C160.3579905 135.69965628 163.65127815 138.51211077 167.0625 141.25 C171.84041338 145.09295479 176.31494984 149.18081329 180.78662109 153.36865234 C184.99929105 157.29156854 189.38913555 160.93161024 193.87890625 164.53515625 C196.88819052 167.03076469 199.76438654 169.65015143 202.625 172.3125 C206.35827255 175.78669243 210.14871111 179.1131871 214.125 182.3125 C218.64358176 185.9481405 222.90483329 189.78086402 227.14672852 193.72875977 C230.3579905 196.69965628 233.65127815 199.51211077 237.0625 202.25 C241.84041338 206.09295479 246.31494984 210.18081329 250.78662109 214.36865234 C254.99929105 218.29156854 259.38913555 221.93161024 263.87890625 225.53515625 C266.88819052 228.03076469 269.76438654 230.65015143 272.625 233.3125 C276.35827255 236.78669243 280.14871111 240.1131871 284.125 243.3125 C288.64358176 246.9481405 292.90483329 250.78086402 297.14672852 254.72875977 C300.3579905 257.69965628 303.65127815 260.51211077 307.0625 263.25 C311.84041338 267.09295479 316.31494984 271.18081329 320.78662109 275.36865234 C324.99929105 279.29156854 329.38913555 282.93161024 333.87890625 286.53515625 C336.88819052 289.03076469 339.76438654 291.65015143 342.625 294.3125 C346.35827255 297.78669243 350.14871111 301.1131871 354.125 304.3125 C358.64358176 307.9481405 362.90483329 311.78086402 367.14672852 315.72875977 C370.3579905 318.69965628 373.65127815 321.51211077 377.0625 324.25 C381.84041338 328.09295479 386.31494984 332.18081329 390.78662109 336.36865234 C394.99929105 340.29156854 399.38913555 343.93161024 403.87890625 347.53515625 C407.42257744 350.47393336 410.78102502 353.59612348 414.14916992 356.73120117 C417.33841919 359.68196347 420.60873905 362.47250223 424 365.1875 C428.52349911 368.84592117 432.8876183 372.64600514 437.1875 376.5625 C437.79577637 377.10567871 438.40405273 377.64885742 439.03076172 378.20849609 C442.93097439 381.80367655 445.14263424 384.63786025 445.9609375 390.0234375 C446.06602129 395.84507969 445.06090968 399.07651638 441.625 403.8125 C437.25098373 407.8664663 433.81571376 409.21666687 427.7890625 409.07421875 C420.05630687 408.13902989 414.90818236 402.57051891 409.4765625 397.453125 C406.79346889 394.96850681 404.04048517 392.66067688 401.1875 390.375 C396.6510327 386.71614231 392.366339 382.86381037 388.10351562 378.89648438 C384.89218772 375.9254881 381.59881211 373.11296168 378.1875 370.375 C373.40958662 366.53204521 368.93505016 362.44418671 364.46337891 358.25634766 C360.25870212 354.34087485 355.87968606 350.7053452 351.39453125 347.11328125 C347.21924452 343.6446721 343.2936899 339.9249263 339.3515625 336.1953125 C336.87853264 334.03406864 334.49555286 332.38869448 331.625 330.8125 C330.79742187 331.33457031 329.96984375 331.85664063 329.1171875 332.39453125 C294.30176388 354.01270064 255.55507278 368.29578165 214.25 368.1875 C213.46430634 368.18695618 212.67861267 368.18641235 211.86911011 368.18585205 C198.14698349 368.14241825 185.0090755 367.01415214 171.625 363.8125 C170.27994385 363.49104004 170.27994385 363.49104004 168.90771484 363.16308594 C155.69602225 359.89053039 143.0900466 355.24566159 130.625 349.8125 C129.83383789 349.46848145 129.04267578 349.12446289 128.22753906 348.77001953 C104.49512033 338.30844161 82.88650984 323.90637716 62.625 307.8125 C61.68011719 307.06226563 60.73523438 306.31203125 59.76171875 305.5390625 C54.13573647 301.00326349 48.7338269 296.270732 43.42578125 291.3671875 C41.29496506 289.42359784 39.14102631 287.53719913 36.953125 285.66015625 C31.76071707 281.13002341 26.922666 276.25598041 22.0625 271.375 C21.15564453 270.47201172 20.24878906 269.56902344 19.31445312 268.63867188 C14.20767626 263.52448852 9.31455498 258.30981111 4.625 252.8125 C3.64090114 251.69392204 2.65527545 250.5766851 1.66796875 249.4609375 C-3.51863187 243.53887673 -8.47841145 237.52910537 -13.0625 231.125 C-13.48442627 230.53702637 -13.90635254 229.94905273 -14.34106445 229.34326172 C-17.92535411 224.23779803 -19.11900303 220.03507081 -18.375 213.8125 C-15.63863377 206.12461393 -10.03822761 200.45767474 -4.74609375 194.40576172 C-2.82752314 192.17631161 -1.01274631 189.86862851 0.8125 187.5625 C12.92787836 172.69952691 26.74929096 158.06704595 41.41796875 145.68359375 C43.21717419 144.15824967 44.98097298 142.6079237 46.73828125 141.03515625 C57.75272213 131.24015505 69.35251222 121.99415852 81.625 113.8125 C80.11566744 110.0222098 77.94298482 108.22572011 74.75 105.75 C70.55109428 102.41170551 66.54448279 98.97319724 62.625 95.3125 C58.89242769 91.83761573 55.10121202 88.51175105 51.125 85.3125 C46.60641824 81.6768595 42.34516671 77.84413598 38.10327148 73.89624023 C34.8920095 70.92534372 31.59872185 68.11288923 28.1875 65.375 C23.40717779 61.53010775 18.93017044 57.44032028 14.45678711 53.24975586 C11.15322241 50.17271015 7.78088594 47.25592231 4.25 44.4375 C-0.46314112 40.63635517 -4.97653667 36.65375263 -9.4375 32.5625 C-10.09347168 31.97162598 -10.74944336 31.38075195 -11.42529297 30.77197266 C-15.45700933 27.03239432 -17.8623075 24.18673204 -18.7109375 18.6015625 C-18.815947 12.78403612 -17.87522572 9.51017137 -14.375 4.8125 C-9.65723879 1.07760571 -5.9739008 -0.55546797 0 0 Z M105.203125 138.05078125 C104.51460449 138.53538818 103.82608398 139.01999512 103.11669922 139.51928711 C102.37693848 140.04917236 101.63717773 140.57905762 100.875 141.125 C99.72862061 141.94206421 99.72862061 141.94206421 98.55908203 142.77563477 C69.12357691 163.90199075 42.65141962 188.85526703 19.625 216.8125 C23.42484277 225.34722538 30.90775471 232.27044274 37.5078125 238.69921875 C39.48149098 240.66925576 41.31227886 242.69487415 43.125 244.8125 C48.76119514 251.35985833 54.92612732 257.33339643 61.484375 262.94921875 C63.95686486 265.10136777 66.34771357 267.33230719 68.75 269.5625 C84.76488814 284.12748057 102.68660772 297.32276087 121.625 307.8125 C122.88739502 308.51439453 122.88739502 308.51439453 124.17529297 309.23046875 C152.17114505 324.65321467 181.08788176 335.30340559 213.375 335.125 C214.07976471 335.12284485 214.78452942 335.1206897 215.51065063 335.11846924 C226.16912771 335.06623586 236.27170816 334.53859743 246.625 331.8125 C247.82261963 331.51448486 247.82261963 331.51448486 249.04443359 331.21044922 C269.27615027 326.12298609 287.37471433 317.78578041 305.625 307.8125 C305.625 307.1525 305.625 306.4925 305.625 305.8125 C304.09304728 304.44037699 302.49578919 303.1409554 300.875 301.875 C296.63917138 298.49176766 292.58625083 295.01169985 288.625 291.3125 C283.8743715 286.88731009 278.97697151 282.74124083 273.90234375 278.6875 C272.02323047 277.14037414 270.30205831 275.57203659 268.625 273.8125 C265.02029677 275.1066579 262.32899639 276.65859871 259.3125 279 C242.21403939 291.1515766 221.1968439 295.17929657 200.5703125 292.30859375 C179.16955815 288.47921541 160.88742085 276.99838701 147.625 259.8125 C134.86141436 241.14575601 130.64484437 218.55539168 134.2421875 196.32421875 C135.89344729 188.24944128 139.08415253 181.1609306 143.15820312 174.03735352 C145.17375929 170.57819021 145.17375929 170.57819021 145.25390625 166.7109375 C142.82898493 163.88477021 140.05437626 161.54414371 137.1875 159.1875 C135.91420752 158.11986802 134.64208625 157.05083778 133.37109375 155.98046875 C132.73800293 155.44856934 132.10491211 154.91666992 131.45263672 154.36865234 C128.83029001 152.13583937 126.28999883 149.82625419 123.75 147.5 C122.87730469 146.70207031 122.00460938 145.90414062 121.10546875 145.08203125 C119.87763672 143.95861328 119.87763672 143.95861328 118.625 142.8125 C117.10984073 141.43125006 115.58957643 140.05556309 114.0625 138.6875 C113.13244141 137.84832031 113.13244141 137.84832031 112.18359375 136.9921875 C109.30470933 134.81318225 107.84433527 136.18519204 105.203125 138.05078125 Z M171.625 189.8125 C164.97744425 198.87734875 164.68155575 210.04239484 165.625 220.8125 C168.32661093 233.87791785 175.49581406 245.07831502 186.3828125 252.7578125 C197.53193748 259.71509937 209.41680133 262.61888906 222.47265625 260.30859375 C228.98373779 258.70600687 234.76245577 256.02990497 240.625 252.8125 C240.96831177 249.5796023 240.96831177 249.5796023 238.16796875 247.2109375 C237.05781117 246.19395416 235.93867793 245.18671382 234.8125 244.1875 C233.92606812 243.38517944 233.92606812 243.38517944 233.02172852 242.56665039 C228.59190382 238.58878794 224.01401668 234.81631165 219.37109375 231.08984375 C215.82821701 228.15172549 212.47058228 225.03018822 209.10302734 221.89599609 C205.89183127 218.92519934 202.59863159 216.11281679 199.1875 213.375 C193.78387687 209.0255519 188.73017424 204.35977535 183.66015625 199.6328125 C178.17151177 193.436801 178.17151177 193.436801 171.625 189.8125 Z " fill="#000000" transform="translate(42.375,38.1875)"/>
<path d="M0 0 C0.87011719 0.20367187 1.74023438 0.40734375 2.63671875 0.6171875 C60.99046535 14.74769116 109.63506891 52.66975894 151.375 94.25 C152.21949707 95.08982422 153.06399414 95.92964844 153.93408203 96.79492188 C158.8295776 101.7030272 163.49900597 106.72949901 168 112 C169.00808649 113.15324325 170.01716875 114.30561698 171.02734375 115.45703125 C190.67825728 138.04333722 190.67825728 138.04333722 190.29296875 147.9140625 C189.07243849 156.60423793 181.94516414 163.03315781 176.41064453 169.36279297 C174.29561795 171.81751229 172.27694126 174.34740772 170.25 176.875 C167.26582991 180.54414863 164.18595933 183.94819335 160.77685547 187.22241211 C159.02626471 188.97372446 157.41965135 190.78879707 155.8125 192.671875 C151.92184985 197.1462767 147.81467994 201.36902506 143.625 205.5625 C142.92117188 206.27857422 142.21734375 206.99464844 141.4921875 207.73242188 C127.65715298 221.60532602 127.65715298 221.60532602 119.3125 222.3125 C114.5512454 222.23358418 110.84563956 220.78830186 107 218 C102.83085343 212.76184149 101.45272576 208.67674578 102 202 C104.30830167 195.11158987 108.88001611 190.79000031 114.1875 186.0625 C115.72087277 184.65844783 117.25343255 183.25350725 118.78515625 181.84765625 C119.51621582 181.18266113 120.24727539 180.51766602 121.00048828 179.83251953 C126.73991526 174.57242931 132.10554109 169.02005841 137.171875 163.11328125 C140.04926353 159.7870693 143.02295214 156.54822737 145.984375 153.296875 C147.77019535 151.26187041 149.41203295 149.19099251 151 147 C147.2009273 138.46700425 139.72000759 131.54455245 133.12109375 125.1171875 C131.12592462 123.12569272 129.27246099 121.07620737 127.4375 118.9375 C122.12785512 112.77146078 116.34647861 107.19445348 110.17578125 101.8984375 C107.69347802 99.73254995 105.28944855 97.49123043 102.875 95.25 C86.86011186 80.68501943 68.93839228 67.48973913 50 57 C49.15840332 56.53207031 48.31680664 56.06414062 47.44970703 55.58203125 C19.59131074 40.2350089 -9.30154279 29.53833085 -41.4375 29.625 C-42.13188171 29.62487915 -42.82626343 29.6247583 -43.54168701 29.62463379 C-58.8480071 29.66232437 -73.18035684 31.84977408 -87.8125 36.3125 C-94.06065403 38.19141983 -98.98442398 38.90955963 -104.99609375 36.05078125 C-109.51291338 33.22424755 -111.50407236 30.19174887 -113 25 C-113.73507112 19.65779296 -113.01598234 15.52397351 -110 11 C-86.02899294 -11.56919378 -29.37657136 -6.98825927 0 0 Z " fill="#000000" transform="translate(298,110)"/>
</svg>
