<svg width="29" height="31" viewBox="0 0 29 31" fill="none" xmlns="http://www.w3.org/2000/svg">
<path d="M2.4165 28.4167H26.5832" stroke="#303C7A" stroke-width="1.5" stroke-miterlimit="10" stroke-linecap="round" stroke-linejoin="round"/>
<path d="M3.56494 28.4167L3.62536 12.8779C3.62536 12.09 3.97577 11.3409 4.55577 10.85L13.0141 3.81044C13.8841 3.08711 15.1045 3.08711 15.9866 3.81044L24.4449 10.8371C25.037 11.3279 25.3754 12.0771 25.3754 12.8779V28.4167" stroke="#303C7A" stroke-width="1.5" stroke-miterlimit="10" stroke-linejoin="round"/>
<path d="M15.7082 21.9583H13.2915C12.2886 21.9583 11.479 22.8237 11.479 23.8958V28.4166H17.5207V23.8958C17.5207 22.8237 16.7111 21.9583 15.7082 21.9583Z" stroke="#303C7A" stroke-width="1.5" stroke-miterlimit="10" stroke-linejoin="round"/>
<path d="M11.479 17.7604H9.06234C8.39775 17.7604 7.854 17.1791 7.854 16.4687V14.5312C7.854 13.8208 8.39775 13.2396 9.06234 13.2396H11.479C12.1436 13.2396 12.6873 13.8208 12.6873 14.5312V16.4687C12.6873 17.1791 12.1436 17.7604 11.479 17.7604Z" stroke="#303C7A" stroke-width="1.5" stroke-miterlimit="10" stroke-linejoin="round"/>
<path d="M19.9375 17.7604H17.5208C16.8563 17.7604 16.3125 17.1791 16.3125 16.4687V14.5312C16.3125 13.8208 16.8563 13.2396 17.5208 13.2396H19.9375C20.6021 13.2396 21.1458 13.8208 21.1458 14.5312V16.4687C21.1458 17.1791 20.6021 17.7604 19.9375 17.7604Z" stroke="#303C7A" stroke-width="1.5" stroke-miterlimit="10" stroke-linejoin="round"/>
<path d="M22.9579 9.04169L22.9216 5.16669H17.605" stroke="#303C7A" stroke-width="1.5" stroke-miterlimit="10" stroke-linecap="round" stroke-linejoin="round"/>
</svg>
