<svg width="32" height="32" viewBox="0 0 32 32" fill="none" xmlns="http://www.w3.org/2000/svg">
<path d="M8.78104 0.759891V5.06594" stroke="#0A0A0A" stroke-width="1.5" stroke-miterlimit="10" stroke-linecap="round" stroke-linejoin="round"/>
<path d="M21.6146 0.759891V5.06594" stroke="#0A0A0A" stroke-width="1.5" stroke-miterlimit="10" stroke-linecap="round" stroke-linejoin="round"/>
<path d="M1.56208 10.9365H28.8337" stroke="#0A0A0A" stroke-width="1.5" stroke-miterlimit="10" stroke-linecap="round" stroke-linejoin="round"/>
<path d="M31.24 25.1609C31.24 26.2374 30.9031 27.2565 30.3096 28.1177C29.2027 29.7827 27.1653 30.9023 24.8232 30.9023C23.2029 30.9023 21.727 30.3712 20.6041 29.4669C20.1068 29.0938 19.6737 28.6344 19.3368 28.1177C18.7432 27.2565 18.4063 26.2374 18.4063 25.1609C18.4063 21.9888 21.2779 19.4195 24.8232 19.4195C26.7482 19.4195 28.4647 20.1802 29.6358 21.3716C30.6304 22.3907 31.24 23.7112 31.24 25.1609Z" stroke="#0A0A0A" stroke-width="1.5" stroke-miterlimit="10" stroke-linecap="round" stroke-linejoin="round"/>
<path d="M22.3205 25.1609L23.9087 26.5819L27.3257 23.7542" stroke="#0A0A0A" stroke-width="1.5" stroke-linecap="round" stroke-linejoin="round"/>
<path d="M29.6357 10.0897V21.3715C28.4647 20.1801 26.7481 19.4194 24.8231 19.4194C21.2778 19.4194 18.4062 21.9887 18.4062 25.1608C18.4062 26.2373 18.7431 27.2564 19.3367 28.1176C19.6736 28.6344 20.1067 29.0937 20.604 29.4669H8.78096C3.16621 29.4669 0.759891 26.5962 0.759891 22.2901V10.0897C0.759891 5.78361 3.16621 2.91291 8.78096 2.91291H21.6147C27.2294 2.91291 29.6357 5.78361 29.6357 10.0897Z" stroke="#0A0A0A" stroke-width="1.5" stroke-miterlimit="10" stroke-linecap="round" stroke-linejoin="round"/>
<path d="M15.1906 17.5535H15.2051" stroke="#0A0A0A" stroke-width="2" stroke-linecap="round" stroke-linejoin="round"/>
<path d="M9.25301 17.5535H9.26742" stroke="#0A0A0A" stroke-width="2" stroke-linecap="round" stroke-linejoin="round"/>
<path d="M9.25301 21.8596H9.26742" stroke="#0A0A0A" stroke-width="2" stroke-linecap="round" stroke-linejoin="round"/>
</svg>
