<svg width="73" height="74" viewBox="0 0 73 74" fill="none" xmlns="http://www.w3.org/2000/svg">
<path d="M33.945 66.0288L52.195 30.2632H39.42V7.33653L21.17 43.1021H33.945V66.0288ZM36.5 73.3653C31.4508 73.3653 26.7058 72.4024 22.265 70.4765C17.8242 68.5507 13.9613 65.9371 10.6763 62.6356C7.39125 59.3342 4.79063 55.4519 2.87438 50.9889C0.958125 46.5258 0 41.7571 0 36.6826C0 31.6082 0.958125 26.8395 2.87438 22.3764C4.79063 17.9134 7.39125 14.0311 10.6763 10.7297C13.9613 7.42824 17.8242 4.8146 22.265 2.88876C26.7058 0.962919 31.4508 0 36.5 0C41.5492 0 46.2942 0.962919 50.735 2.88876C55.1758 4.8146 59.0387 7.42824 62.3238 10.7297C65.6087 14.0311 68.2094 17.9134 70.1256 22.3764C72.0419 26.8395 73 31.6082 73 36.6826C73 41.7571 72.0419 46.5258 70.1256 50.9889C68.2094 55.4519 65.6087 59.3342 62.3238 62.6356C59.0387 65.9371 55.1758 68.5507 50.735 70.4765C46.2942 72.4024 41.5492 73.3653 36.5 73.3653ZM36.5 66.0288C44.5908 66.0288 51.4802 63.1706 57.1681 57.4542C62.856 51.7378 65.7 44.814 65.7 36.6826C65.7 28.5513 62.856 21.6275 57.1681 15.9111C51.4802 10.1947 44.5908 7.33653 36.5 7.33653C28.4092 7.33653 21.5198 10.1947 15.8319 15.9111C10.144 21.6275 7.3 28.5513 7.3 36.6826C7.3 44.814 10.144 51.7378 15.8319 57.4542C21.5198 63.1706 28.4092 66.0288 36.5 66.0288Z" fill="#33B505"/>
</svg>
