<svg width="29" height="31" viewBox="0 0 29 31" fill="none" xmlns="http://www.w3.org/2000/svg">
<path d="M7.25 12.9166V10.3333C7.25 6.0579 8.45833 2.58331 14.5 2.58331C20.5417 2.58331 21.75 6.0579 21.75 10.3333V12.9166" stroke="#303C7A" stroke-width="1.5" stroke-linecap="round" stroke-linejoin="round"/>
<path d="M14.4998 23.8958C16.1682 23.8958 17.5207 22.4501 17.5207 20.6667C17.5207 18.8832 16.1682 17.4375 14.4998 17.4375C12.8315 17.4375 11.479 18.8832 11.479 20.6667C11.479 22.4501 12.8315 23.8958 14.4998 23.8958Z" stroke="#303C7A" stroke-width="1.5" stroke-linecap="round" stroke-linejoin="round"/>
<path d="M20.5415 28.4167H8.45817C3.62484 28.4167 2.4165 27.125 2.4165 21.9584V19.375C2.4165 14.2084 3.62484 12.9167 8.45817 12.9167H20.5415C25.3748 12.9167 26.5832 14.2084 26.5832 19.375V21.9584C26.5832 27.125 25.3748 28.4167 20.5415 28.4167Z" stroke="#303C7A" stroke-width="1.5" stroke-linecap="round" stroke-linejoin="round"/>
</svg>
