<svg width="18" height="18" viewBox="0 0 18 18" fill="none" xmlns="http://www.w3.org/2000/svg">
<path d="M9 9C8.73575 9 8.51425 8.91375 8.33549 8.74125C8.15674 8.56875 8.06736 8.355 8.06736 8.1C8.06736 7.845 8.15674 7.63125 8.33549 7.45875C8.51425 7.28625 8.73575 7.2 9 7.2C9.26425 7.2 9.48575 7.28625 9.66451 7.45875C9.84326 7.63125 9.93264 7.845 9.93264 8.1C9.93264 8.355 9.84326 8.56875 9.66451 8.74125C9.48575 8.91375 9.26425 9 9 9ZM9 5.4C8.73575 5.4 8.51425 5.31375 8.33549 5.14125C8.15674 4.96875 8.06736 4.755 8.06736 4.5C8.06736 4.245 8.15674 4.03125 8.33549 3.85875C8.51425 3.68625 8.73575 3.6 9 3.6C9.26425 3.6 9.48575 3.68625 9.66451 3.85875C9.84326 4.03125 9.93264 4.245 9.93264 4.5C9.93264 4.755 9.84326 4.96875 9.66451 5.14125C9.48575 5.31375 9.26425 5.4 9 5.4ZM9 1.8C8.73575 1.8 8.51425 1.71375 8.33549 1.54125C8.15674 1.36875 8.06736 1.155 8.06736 0.9C8.06736 0.645 8.15674 0.43125 8.33549 0.25875C8.51425 0.08625 8.73575 0 9 0C9.26425 0 9.48575 0.08625 9.66451 0.25875C9.84326 0.43125 9.93264 0.645 9.93264 0.9C9.93264 1.155 9.84326 1.36875 9.66451 1.54125C9.48575 1.71375 9.26425 1.8 9 1.8ZM11.7979 10.8C11.5337 10.8 11.3122 10.7138 11.1334 10.5413C10.9547 10.3688 10.8653 10.155 10.8653 9.9C10.8653 9.645 10.9547 9.43125 11.1334 9.25875C11.3122 9.08625 11.5337 9 11.7979 9C12.0622 9 12.2837 9.08625 12.4624 9.25875C12.6412 9.43125 12.7306 9.645 12.7306 9.9C12.7306 10.155 12.6412 10.3688 12.4624 10.5413C12.2837 10.7138 12.0622 10.8 11.7979 10.8ZM14.4326 8.235C14.1684 8.235 13.9469 8.14875 13.7681 7.97625C13.5894 7.80375 13.5 7.59 13.5 7.335C13.5 7.08 13.5894 6.86625 13.7681 6.69375C13.9469 6.52125 14.1684 6.435 14.4326 6.435C14.6969 6.435 14.9184 6.52125 15.0972 6.69375C15.2759 6.86625 15.3653 7.08 15.3653 7.335C15.3653 7.59 15.2759 7.80375 15.0972 7.97625C14.9184 8.14875 14.6969 8.235 14.4326 8.235ZM17.0674 5.715C16.8031 5.715 16.5816 5.62875 16.4029 5.45625C16.2241 5.28375 16.1347 5.07 16.1347 4.815C16.1347 4.56 16.2241 4.34625 16.4029 4.17375C16.5816 4.00125 16.8031 3.915 17.0674 3.915C17.3316 3.915 17.5531 4.00125 17.7319 4.17375C17.9106 4.34625 18 4.56 18 4.815C18 5.07 17.9106 5.28375 17.7319 5.45625C17.5531 5.62875 17.3316 5.715 17.0674 5.715ZM6.20207 10.8C5.93782 10.8 5.71632 10.7138 5.53756 10.5413C5.35881 10.3688 5.26943 10.155 5.26943 9.9C5.26943 9.645 5.35881 9.43125 5.53756 9.25875C5.71632 9.08625 5.93782 9 6.20207 9C6.46632 9 6.68782 9.08625 6.86658 9.25875C7.04534 9.43125 7.13472 9.645 7.13472 9.9C7.13472 10.155 7.04534 10.3688 6.86658 10.5413C6.68782 10.7138 6.46632 10.8 6.20207 10.8ZM3.56736 8.235C3.30311 8.235 3.08161 8.14875 2.90285 7.97625C2.72409 7.80375 2.63472 7.59 2.63472 7.335C2.63472 7.08 2.72409 6.86625 2.90285 6.69375C3.08161 6.52125 3.30311 6.435 3.56736 6.435C3.83161 6.435 4.05311 6.52125 4.23187 6.69375C4.41062 6.86625 4.5 7.08 4.5 7.335C4.5 7.59 4.41062 7.80375 4.23187 7.97625C4.05311 8.14875 3.83161 8.235 3.56736 8.235ZM0.932643 5.715C0.668394 5.715 0.446891 5.62875 0.268135 5.45625C0.0893782 5.28375 0 5.07 0 4.815C0 4.56 0.0893782 4.34625 0.268135 4.17375C0.446891 4.00125 0.668394 3.915 0.932643 3.915C1.19689 3.915 1.41839 4.00125 1.59715 4.17375C1.77591 4.34625 1.86529 4.56 1.86529 4.815C1.86529 5.07 1.77591 5.28375 1.59715 5.45625C1.41839 5.62875 1.19689 5.715 0.932643 5.715ZM8.06736 18V14.4H4.33679V12.6H13.6632V14.4H9.93264V18H8.06736Z" fill="black" fill-opacity="0.99"/>
</svg>
