<svg width="38" height="34" viewBox="0 0 38 34" fill="none" xmlns="http://www.w3.org/2000/svg">
<path d="M12.6666 2.83331V7.08331" stroke="#0A0A0A" stroke-width="1.5" stroke-miterlimit="10" stroke-linecap="round" stroke-linejoin="round"/>
<path d="M25.3334 2.83331V7.08331" stroke="#0A0A0A" stroke-width="1.5" stroke-miterlimit="10" stroke-linecap="round" stroke-linejoin="round"/>
<path d="M5.54163 12.8775H32.4583" stroke="#0A0A0A" stroke-width="1.5" stroke-miterlimit="10" stroke-linecap="round" stroke-linejoin="round"/>
<path d="M34.8333 26.9167C34.8333 27.9792 34.5008 28.985 33.915 29.835C32.8225 31.4783 30.8116 32.5833 28.5 32.5833C26.9008 32.5833 25.4441 32.0592 24.3358 31.1667C23.845 30.7983 23.4175 30.345 23.085 29.835C22.4991 28.985 22.1666 27.9792 22.1666 26.9167C22.1666 23.7858 25.0008 21.25 28.5 21.25C30.4 21.25 32.0941 22.0008 33.25 23.1766C34.2316 24.1825 34.8333 25.4858 34.8333 26.9167Z" stroke="#0A0A0A" stroke-width="1.5" stroke-miterlimit="10" stroke-linecap="round" stroke-linejoin="round"/>
<path d="M26.03 26.9167L27.5975 28.3192L30.97 25.5283" stroke="#0A0A0A" stroke-width="1.5" stroke-linecap="round" stroke-linejoin="round"/>
<path d="M33.25 12.0416V23.1766C32.0942 22.0008 30.4 21.25 28.5 21.25C25.0008 21.25 22.1667 23.7858 22.1667 26.9166C22.1667 27.9791 22.4992 28.985 23.085 29.835C23.4175 30.345 23.845 30.7983 24.3358 31.1666H12.6667C7.125 31.1666 4.75 28.3333 4.75 24.0833V12.0416C4.75 7.79165 7.125 4.95831 12.6667 4.95831H25.3333C30.875 4.95831 33.25 7.79165 33.25 12.0416Z" stroke="#0A0A0A" stroke-width="1.5" stroke-miterlimit="10" stroke-linecap="round" stroke-linejoin="round"/>
<path d="M18.9928 19.4083H19.007" stroke="#0A0A0A" stroke-width="2" stroke-linecap="round" stroke-linejoin="round"/>
<path d="M13.1327 19.4083H13.1469" stroke="#0A0A0A" stroke-width="2" stroke-linecap="round" stroke-linejoin="round"/>
<path d="M13.1327 23.6583H13.1469" stroke="#0A0A0A" stroke-width="2" stroke-linecap="round" stroke-linejoin="round"/>
</svg>
