<svg width="68" height="74" viewBox="0 0 68 74" fill="none" xmlns="http://www.w3.org/2000/svg">
<path fill-rule="evenodd" clip-rule="evenodd" d="M15.452 15.8571C15.452 7.09948 23.7562 0 34 0C44.2438 0 52.548 7.09948 52.548 15.8571C52.548 24.6148 44.2438 31.7143 34 31.7143C23.7562 31.7143 15.452 24.6148 15.452 15.8571Z" fill="#2DEB34"/>
<path fill-rule="evenodd" clip-rule="evenodd" d="M0.000461363 65.5616C0.31924 49.7406 15.419 37 34 37C52.5815 37 67.6814 49.7412 67.9995 65.5628C68.0206 66.612 67.3136 67.5726 66.1979 68.0102C56.3924 71.8568 45.4854 74 34.0013 74C22.5161 74 11.6082 71.8564 1.80199 68.0092C0.686349 67.5715 -0.0206806 66.6109 0.000461363 65.5616Z" fill="#2DEB34"/>
</svg>
